@startuml
!theme crt-amber
title UML-діаграма розгортання додатку "Lazy farmer"

left to right direction

skinparam componentStyle uml1

node "<<Desktop>>" as dk {
    node "<<Operating System Windows x64/x32>>" {
        node "<<Client desktop application>>" {
        }
    }
}

interface Keyboard

interface Mouse

Keyboard -- dk

Mouse -- dk

node "<<Server 1>>" as serv1 {
	node "<<Operating System Linux>>" as l1 {
	    node "<<Application Backed Server>>" {
		    component [<<*.java>>]
		}
	}
}

dk -- serv1

node "<<Server 2>>" as serv2 {
	node "<<Operating System Windows>>" as l2 {
	    node "<<Database Server Microsoft Sql Server>>" {
		    database "Relation Database"
		}
	}
}

serv1 -- serv2
@enduml